<svg xmlns="http://www.w3.org/2000/svg" xmlns:xlink="http://www.w3.org/1999/xlink" width="500" zoomAndPan="magnify" viewBox="0 0 375 374.999991" height="500" preserveAspectRatio="xMidYMid meet" version="1.0"><defs><clipPath id="17c29cd865"><path d="M 59.453125 67.382812 L 315.800781 67.382812 L 315.800781 362 L 59.453125 362 Z M 59.453125 67.382812 " clip-rule="nonzero"/></clipPath><clipPath id="3433e5fccb"><path d="M 187.492188 300.5 C 201.660156 300.5 212.988281 296.207031 221.441406 287.621094 C 229.894531 279.035156 234.371094 265.894531 234.925781 248.167969 C 235.476562 232.367188 235.742188 221.042969 235.742188 214.222656 C 235.742188 207.398438 235.476562 196.363281 234.925781 181.117188 C 234.371094 163.390625 229.867188 150.25 221.441406 141.664062 C 213.011719 133.078125 201.660156 128.785156 187.492188 128.785156 C 173.035156 128.785156 161.605469 133.078125 153.148438 141.664062 C 144.695312 150.25 140.191406 163.390625 139.664062 181.117188 C 139.402344 188.753906 139.269531 199.789062 139.269531 214.222656 C 139.269531 228.941406 139.402344 240.269531 139.664062 248.167969 C 140.21875 265.894531 144.695312 279.035156 153.148438 287.621094 C 161.605469 296.207031 173.035156 300.5 187.492188 300.5 M 187.492188 361.835938 C 148.777344 361.835938 118.253906 352.433594 95.921875 333.628906 C 73.585938 314.828125 61.710938 287.148438 60.339844 250.617188 C 60.078125 242.980469 59.917969 231.261719 59.917969 215.457031 C 59.917969 199.65625 60.050781 187.804688 60.339844 179.878906 C 61.421875 143.902344 73.351562 116.171875 96.105469 96.679688 C 118.859375 77.191406 149.332031 67.449219 187.492188 67.449219 C 225.363281 67.449219 255.703125 77.191406 278.460938 96.679688 C 301.214844 116.171875 313.144531 143.902344 314.25 179.878906 C 314.804688 195.679688 315.066406 207.558594 315.066406 215.457031 C 315.066406 223.625 314.804688 235.371094 314.25 250.617188 C 312.882812 287.148438 301.109375 314.800781 278.878906 333.605469 C 256.652344 352.410156 226.207031 361.8125 187.492188 361.8125 " clip-rule="nonzero"/></clipPath><clipPath id="91b4c9b13b"><path d="M 24.296875 13 L 75.566406 13 L 75.566406 55.664062 L 24.296875 55.664062 Z M 24.296875 13 " clip-rule="nonzero"/></clipPath><clipPath id="39f9f2630e"><path d="M 48.460938 55.175781 C 48.460938 55.175781 50.332031 44.351562 42.589844 34.738281 C 34.847656 25.125 22.785156 19.566406 25.261719 14.300781 C 27.734375 9.035156 64.238281 21.753906 75.378906 53.332031 " clip-rule="nonzero"/></clipPath><clipPath id="cd73de05dd"><path d="M 8 37 L 367 37 L 367 68 L 8 68 Z M 8 37 " clip-rule="nonzero"/></clipPath><clipPath id="b9fb5c102a"><path d="M 193.496094 37.714844 C 74.695312 37.714844 6.71875 57.148438 8.195312 62.046875 C 9.328125 65.972656 12.382812 68.160156 15.382812 67.238281 C 22.996094 64.839844 40.296875 60.652344 74.824219 57.441406 C 120.652344 53.199219 207.378906 49.855469 361.101562 57.859375 C 364.160156 58.019531 366.738281 54.753906 366.84375 50.539062 C 365.476562 43.113281 238.347656 37.714844 193.496094 37.714844 " clip-rule="nonzero"/></clipPath></defs><g clip-path="url(#17c29cd865)"><g clip-path="url(#3433e5fccb)"><rect x="-37.5" width="450" fill="white" y="-37.499999" height="449.999989" fill-opacity="1"/></g></g><g clip-path="url(#91b4c9b13b)"><g clip-path="url(#39f9f2630e)"><rect x="-37.5" width="450" fill="white" y="-37.499999" height="449.999989" fill-opacity="1"/></g></g><g clip-path="url(#cd73de05dd)"><g clip-path="url(#b9fb5c102a)"><rect x="-37.5" width="450" fill="white" y="-37.499999" height="449.999989" fill-opacity="1"/></g></g></svg> 