<?xml version="1.0" encoding="utf-8"?><!-- Uploaded to: SVG Repo, www.svgrepo.com, Generator: SVG Repo Mixer Tools -->
<svg fill="#000000" width="800px" height="800px" viewBox="0 0 24 24" id="ocean-2" data-name="Flat Color" xmlns="http://www.w3.org/2000/svg" class="icon flat-color"><path id="secondary" d="M15,21H9a1,1,0,0,1,0-2h6a1,1,0,0,1,0,2Zm3-4H6a1,1,0,0,1,0-2H18a1,1,0,0,1,0,2Z" style="fill: rgb(44, 169, 188);"></path><path id="primary" d="M21,13a.84.84,0,0,1-.27,0c-2.25-.63-2.51-2.44-2.74-4l-.08-.55A4.39,4.39,0,0,0,15.32,5.1,2.68,2.68,0,0,0,13,5.55,4,4,0,0,1,11,13H3a1,1,0,0,1,0-2h8a2,2,0,0,0,0-4,1,1,0,0,1-.74-1.68c2.29-2.49,4.33-2.53,5.64-2.14a6.33,6.33,0,0,1,4,4.88l.08.58c.25,1.72.4,2.14,1.3,2.4A1,1,0,0,1,21,13Z" style="fill: rgb(0, 0, 0);"></path></svg>